<?xml version="1.0" encoding="UTF-8" standalone="no"?>
<!-- Created with Inkscape (http://www.inkscape.org/) -->

<svg
   xmlns:dc="http://purl.org/dc/elements/1.1/"
   xmlns:cc="http://creativecommons.org/ns#"
   xmlns:rdf="http://www.w3.org/1999/02/22-rdf-syntax-ns#"
   xmlns:svg="http://www.w3.org/2000/svg"
   xmlns="http://www.w3.org/2000/svg"
   xmlns:xlink="http://www.w3.org/1999/xlink"
   xmlns:sodipodi="http://sodipodi.sourceforge.net/DTD/sodipodi-0.dtd"
   xmlns:inkscape="http://www.inkscape.org/namespaces/inkscape"
   width="512"
   height="512"
   id="svg3350"
   version="1.1"
   inkscape:version="0.48.5 r10040"
   sodipodi:docname="New document 9">
  <defs
     id="defs3352">
    <clipPath
       id="SVGID_2_">
      <use
         height="1052.3622"
         width="744.09448"
         y="0"
         x="0"
         style="overflow:visible"
         xlink:href="#SVGID_1_"
         overflow="visible"
         id="use3189" />
    </clipPath>
    <clipPath
       id="SVGID_4_">
      <use
         height="1052.3622"
         width="744.09448"
         y="0"
         x="0"
         style="overflow:visible"
         xlink:href="#SVGID_3_"
         overflow="visible"
         id="use3199" />
    </clipPath>
    <clipPath
       id="SVGID_6_">
      <use
         height="1052.3622"
         width="744.09448"
         y="0"
         x="0"
         style="overflow:visible"
         xlink:href="#SVGID_5_"
         overflow="visible"
         id="use3211" />
    </clipPath>
  </defs>
  <sodipodi:namedview
     id="base"
     pagecolor="#ffffff"
     bordercolor="#666666"
     borderopacity="1.0"
     inkscape:pageopacity="0.0"
     inkscape:pageshadow="2"
     inkscape:zoom="0.7"
     inkscape:cx="169.88456"
     inkscape:cy="270.72562"
     inkscape:document-units="px"
     inkscape:current-layer="layer1"
     showgrid="false"
     inkscape:window-width="924"
     inkscape:window-height="623"
     inkscape:window-x="20"
     inkscape:window-y="20"
     inkscape:window-maximized="0" />
  <metadata
     id="metadata3355">
    <rdf:RDF>
      <cc:Work
         rdf:about="">
        <dc:format>image/svg+xml</dc:format>
        <dc:type
           rdf:resource="http://purl.org/dc/dcmitype/StillImage" />
        <dc:title></dc:title>
      </cc:Work>
    </rdf:RDF>
  </metadata>
  <g
     inkscape:label="Layer 1"
     inkscape:groupmode="layer"
     id="layer1"
     transform="translate(0,-540.36218)">
    <g
       id="g3487"
       transform="translate(183.14286,9.714265)">
      <path
         id="path3147"
         d="M 224.05714,767.64789 H -78.242859 c -9.8,0 -17.9,7.6 -17.9,17.5 v 182.30005 c 0,9.8 8.1,18.2 17.9,18.2 H 224.05714 c 9.8,0 17.8,-8.4 17.8,-18.2 V 785.14789 c 0,-9.9 -8,-17.5 -17.8,-17.5 z"
         clip-rule="evenodd"
         inkscape:connector-curvature="0"
         style="fill:#4d5f48;fill-rule:evenodd" />
      <g
         id="g3149"
         transform="translate(-182.14286,530.64789)">
        <path
           id="path3151"
           d="m 148.5,272 h -26.8 c -2.3,0 -3.7,1.7 -3.7,4 v 26.8 c 0,2.3 1.4,4.2 3.7,4.2 h 26.8 c 2.3,0 4.5,-1.9 4.5,-4.2 V 276 c 0,-2.3 -2.2,-4 -4.5,-4 z"
           clip-rule="evenodd"
           inkscape:connector-curvature="0"
           style="fill:#b7bbb3;fill-rule:evenodd" />
        <path
           id="path3153"
           d="m 208.5,272 h -26.8 c -2.3,0 -3.7,1.7 -3.7,4 v 26.8 c 0,2.3 1.4,4.2 3.7,4.2 h 26.8 c 2.3,0 4.5,-1.9 4.5,-4.2 V 276 c 0,-2.3 -2.2,-4 -4.5,-4 z"
           clip-rule="evenodd"
           inkscape:connector-curvature="0"
           style="fill:#b7bbb3;fill-rule:evenodd" />
        <path
           id="path3155"
           d="m 268.5,272 h -26.8 c -2.3,0 -3.7,1.7 -3.7,4 v 26.8 c 0,2.3 1.4,4.2 3.7,4.2 h 26.8 c 2.3,0 4.5,-1.9 4.5,-4.2 V 276 c 0,-2.3 -2.2,-4 -4.5,-4 z"
           clip-rule="evenodd"
           inkscape:connector-curvature="0"
           style="fill:#b7bbb3;fill-rule:evenodd" />
        <path
           id="path3157"
           d="m 328.5,272 h -26.8 c -2.3,0 -3.7,1.7 -3.7,4 v 26.8 c 0,2.3 1.4,4.2 3.7,4.2 h 26.8 c 2.3,0 4.5,-1.9 4.5,-4.2 V 276 c 0,-2.3 -2.2,-4 -4.5,-4 z"
           clip-rule="evenodd"
           inkscape:connector-curvature="0"
           style="fill:#b7bbb3;fill-rule:evenodd" />
        <path
           id="path3159"
           d="m 388.5,272 h -26.8 c -2.3,0 -3.7,1.7 -3.7,4 v 26.8 c 0,2.3 1.4,4.2 3.7,4.2 h 26.8 c 2.3,0 4.5,-1.9 4.5,-4.2 V 276 c 0,-2.3 -2.2,-4 -4.5,-4 z"
           clip-rule="evenodd"
           inkscape:connector-curvature="0"
           style="fill:#b7bbb3;fill-rule:evenodd" />
      </g>
      <g
         id="g3161"
         transform="translate(-182.14286,530.64789)">
        <path
           id="path3163"
           d="m 148.5,323 h -26.8 c -2.3,0 -3.7,1.7 -3.7,4 v 26.8 c 0,2.3 1.4,4.2 3.7,4.2 h 26.8 c 2.3,0 4.5,-1.9 4.5,-4.2 V 327 c 0,-2.3 -2.2,-4 -4.5,-4 z"
           clip-rule="evenodd"
           inkscape:connector-curvature="0"
           style="fill:#b7bbb3;fill-rule:evenodd" />
        <path
           id="path3165"
           d="m 208.5,323 h -26.8 c -2.3,0 -3.7,1.7 -3.7,4 v 26.8 c 0,2.3 1.4,4.2 3.7,4.2 h 26.8 c 2.3,0 4.5,-1.9 4.5,-4.2 V 327 c 0,-2.3 -2.2,-4 -4.5,-4 z"
           clip-rule="evenodd"
           inkscape:connector-curvature="0"
           style="fill:#b7bbb3;fill-rule:evenodd" />
        <path
           id="path3167"
           d="m 268.5,323 h -26.8 c -2.3,0 -3.7,1.7 -3.7,4 v 26.8 c 0,2.3 1.4,4.2 3.7,4.2 h 26.8 c 2.3,0 4.5,-1.9 4.5,-4.2 V 327 c 0,-2.3 -2.2,-4 -4.5,-4 z"
           clip-rule="evenodd"
           inkscape:connector-curvature="0"
           style="fill:#b7bbb3;fill-rule:evenodd" />
        <path
           id="path3169"
           d="m 328.5,323 h -26.8 c -2.3,0 -3.7,1.7 -3.7,4 v 26.8 c 0,2.3 1.4,4.2 3.7,4.2 h 26.8 c 2.3,0 4.5,-1.9 4.5,-4.2 V 327 c 0,-2.3 -2.2,-4 -4.5,-4 z"
           clip-rule="evenodd"
           inkscape:connector-curvature="0"
           style="fill:#b7bbb3;fill-rule:evenodd" />
        <path
           id="path3171"
           d="m 388.5,323 h -26.8 c -2.3,0 -3.7,1.7 -3.7,4 v 26.8 c 0,2.3 1.4,4.2 3.7,4.2 h 26.8 c 2.3,0 4.5,-1.9 4.5,-4.2 V 327 c 0,-2.3 -2.2,-4 -4.5,-4 z"
           clip-rule="evenodd"
           inkscape:connector-curvature="0"
           style="fill:#b7bbb3;fill-rule:evenodd" />
      </g>
      <path
         id="path3173"
         d="m -33.642859,913.64794 h -26.8 c -2.3,0 -3.7,1.7 -3.7,4 v 26.8 c 0,2.3 1.4,4.2 3.7,4.2 h 26.8 c 2.3,0 4.5,-1.9 4.5,-4.2 v -26.8 c 0,-2.3 -2.2,-4 -4.5,-4 z"
         clip-rule="evenodd"
         inkscape:connector-curvature="0"
         style="fill:#b7bbb3;fill-rule:evenodd" />
      <path
         id="path3175"
         d="m 146.35714,913.64794 h -13 -13.8 -33.199999 -26.8 -33.2 H 9.5571412 -0.44285882 c -2.29999998,0 -3.69999998,1.7 -3.69999998,4 v 26.8 c 0,2.3 1.4,4.2 3.69999998,4.2 H 9.5571412 26.357141 h 33.2 26.8 33.199999 13.8 13 c 2.3,0 4.5,-1.9 4.5,-4.2 v -26.8 c 0,-2.3 -2.2,-4 -4.5,-4 z"
         clip-rule="evenodd"
         inkscape:connector-curvature="0"
         style="fill:#b7bbb3;fill-rule:evenodd" />
      <path
         id="path3177"
         d="m 206.35714,913.64794 h -26.8 c -2.3,0 -3.7,1.7 -3.7,4 v 26.8 c 0,2.3 1.4,4.2 3.7,4.2 h 26.8 c 2.3,0 4.5,-1.9 4.5,-4.2 v -26.8 c 0,-2.3 -2.2,-4 -4.5,-4 z"
         clip-rule="evenodd"
         inkscape:connector-curvature="0"
         style="fill:#b7bbb3;fill-rule:evenodd" />
      <path
         id="path3179"
         d="M 224.05714,767.64789 H -11.842859 c -4.4,0 -11,12.3 -2.7,18.5 82.1,61 248.799999,184.90005 248.799999,184.90005 4.2,3.1 7.5,1.3 7.5,-3.9 V 785.04789 c 0.1,-9.8 -7.9,-17.4 -17.7,-17.4 z"
         clip-rule="evenodd"
         inkscape:connector-curvature="0"
         style="opacity:0.4;fill:#5a5a5a;fill-rule:evenodd" />
      <path
         id="path3181"
         d="m -25.142859,769.84789 c 0,5.7 3.7,13.2 8.3,16.6 l 88.9,64.5 89.099999,-64.5 c 4.7,-3.4 8.6,-10.8 8.6,-16.6 v -55.2 H -25.142859 v 55.2 z"
         clip-rule="evenodd"
         inkscape:connector-curvature="0"
         style="fill:#8bc349;fill-rule:evenodd" />
      <g
         id="g3183"
         transform="translate(-182.14286,530.64789)">
        <defs
           id="defs3185">
          <path
             d="m 261.4,258.6 c 3.6,0 7.3,-0.7 11.1,-2.1 3.8,-1.4 7.4,-3.4 10.7,-6.1 -1.5,-1.3 -3.1,-2.4 -5,-3.3 -1.9,-0.8 -3.7,-1.5 -5.6,-2 -1.9,-0.5 -3.7,-0.8 -5.5,-0.9 -1.8,-0.2 -3.3,-0.2 -4.6,-0.2 -1.4,0 -2.9,0.2 -4.5,0.5 -1.5,0.3 -3,0.8 -4.3,1.4 -1.3,0.6 -2.4,1.4 -3.2,2.3 -0.8,0.9 -1.3,1.9 -1.3,3.1 0,1.2 0.4,2.2 1.1,3.1 0.7,0.9 1.6,1.7 2.8,2.3 1.1,0.6 2.4,1.1 3.9,1.4 1.5,0.4 3,0.5 4.4,0.5 z m -31.6,-24.1 c 0,0 -0.2,0.4 -0.7,1.2 -0.5,0.8 -1.1,1.6 -1.7,2.4 -0.6,0.9 -1.3,1.7 -1.8,2.4 -0.6,0.7 -0.9,1.1 -1,1.1 -4.3,-2.8 -7.6,-6.1 -9.7,-9.7 -2.1,-3.6 -3.2,-7.5 -3.2,-11.7 0,-3.3 0.7,-6.3 2,-9 1.4,-2.6 3.1,-4.9 5.3,-6.7 2.1,-1.8 4.6,-3.2 7.2,-4.2 2.7,-1 5.4,-1.5 8,-1.5 3.3,0 6.3,0.5 8.9,1.5 2.6,1 4.9,2.3 6.9,4 2,1.7 3.7,3.6 5.2,5.9 1.5,2.2 2.6,4.6 3.6,7 0.8,-2.4 1.9,-4.8 3.4,-7 1.5,-2.2 3.3,-4.2 5.4,-5.9 2.1,-1.7 4.4,-3 6.9,-4 2.5,-1 5.3,-1.5 8.2,-1.5 3.5,0 6.7,0.6 9.6,1.8 2.9,1.2 5.3,2.9 7.4,5.1 2,2.2 3.6,4.8 4.7,7.8 1.1,3 1.7,6.4 1.7,10.1 0,2.4 -0.3,4.8 -0.8,7.2 -0.5,2.5 -1.3,4.9 -2.3,7.4 -1,2.4 -2.3,4.8 -3.8,7.2 -1.5,2.3 -3.2,4.6 -5.1,6.7 0.8,1.6 1.4,3.2 1.8,4.9 0.4,1.7 0.7,3.5 0.7,5.4 0,1.7 -0.2,3.4 -0.6,5.3 -0.4,1.8 -1,3.6 -1.6,5.3 -0.7,1.7 -1.5,3.4 -2.5,5 -1,1.6 -2.1,3 -3.2,4.2 l -7.2,-4.7 c 0.9,-1.1 1.8,-2.3 2.7,-3.4 0.9,-1.1 1.6,-2.4 2.3,-3.6 0.7,-1.2 1.2,-2.5 1.6,-3.7 0.4,-1.3 0.6,-2.5 0.6,-3.8 0,-0.9 -0.1,-1.8 -0.2,-2.7 -0.1,-0.9 -0.3,-1.7 -0.5,-2.4 -3.7,2.8 -7.8,5.1 -12.4,6.8 -4.6,1.7 -9.5,2.6 -15,2.6 -3,0 -5.7,-0.4 -8.1,-1.3 -2.4,-0.9 -4.5,-2.1 -6.2,-3.6 -1.7,-1.5 -3,-3.2 -4,-5.1 -1,-1.9 -1.4,-3.9 -1.4,-5.9 0,-3 0.8,-5.6 2.3,-7.6 1.6,-2 3.5,-3.6 5.7,-4.9 2.3,-1.2 4.6,-2.1 7.1,-2.6 2.5,-0.5 4.6,-0.8 6.4,-0.8 5.3,0 10.2,0.9 14.8,2.6 4.6,1.7 8.4,4.1 11.6,7.1 2.6,-3 4.7,-6.3 6.3,-10.1 1.6,-3.7 2.4,-7.8 2.4,-12.2 0,-2.4 -0.4,-4.6 -1.1,-6.5 -0.7,-1.9 -1.8,-3.5 -3.1,-4.9 -1.3,-1.3 -2.9,-2.3 -4.7,-3 -1.8,-0.7 -3.8,-1 -6,-1 -2.7,0 -5.2,0.6 -7.3,1.9 -2.1,1.3 -4,3 -5.6,5 -1.6,2 -3,4.3 -4,6.8 -1.1,2.5 -1.9,5 -2.5,7.4 h -8.6 c -0.4,-2 -1.1,-4.3 -2.3,-6.8 -1.2,-2.5 -2.7,-4.8 -4.6,-7 -1.9,-2.2 -4,-4 -6.5,-5.4 -2.5,-1.4 -5.2,-2.2 -8.1,-2.2 -1.7,0 -3.3,0.3 -4.9,1 -1.5,0.7 -2.9,1.6 -4.1,2.8 -1.2,1.2 -2.1,2.5 -2.9,4.1 -0.7,1.6 -1.1,3.2 -1.1,4.9 0,1.7 0.2,3.3 0.6,4.6 0.4,1.3 1,2.5 1.8,3.6 0.8,1.1 1.8,2.1 3,3.1 1.3,1.2 2.7,2.1 4.3,3.2 z"
             id="SVGID_1_"
             inkscape:connector-curvature="0" />
        </defs>
        <clipPath
           id="clipPath3322">
          <use
             id="use3324"
             overflow="visible"
             xlink:href="#SVGID_1_"
             style="overflow:visible"
             x="0"
             y="0"
             width="744.09448"
             height="1052.3622" />
        </clipPath>
        <rect
           id="rect3191"
           height="109.6"
           width="120.5"
           clip-path="url(#SVGID_2_)"
           y="185.8"
           x="198.60001"
           style="fill:#ffffff" />
      </g>
      <g
         id="g3193"
         transform="translate(-182.14286,530.64789)">
        <defs
           id="defs3195">
          <polygon
             points="167.1,184 156.7,184 167.2,202.3 "
             id="SVGID_3_" />
        </defs>
        <clipPath
           id="clipPath3330">
          <use
             id="use3332"
             overflow="visible"
             xlink:href="#SVGID_3_"
             style="overflow:visible"
             x="0"
             y="0"
             width="744.09448"
             height="1052.3622" />
        </clipPath>
        <rect
           id="rect3201"
           height="44.400002"
           width="36.599998"
           clip-path="url(#SVGID_4_)"
           y="170.89999"
           x="143.7"
           style="fill:#4c6b28" />
      </g>
      <path
         id="path3203"
         d="M 164.05714,587.64789 H 0.55714118 c -8.69999998,0 -15.70000018,7.5 -15.70000018,16.1 v 65.1 63.8 H 179.85714 v -66.7 -62.2 c 0,-8.6 -7.1,-16.1 -15.8,-16.1 z"
         clip-rule="evenodd"
         inkscape:connector-curvature="0"
         style="fill:#4caf50;fill-rule:evenodd" />
      <g
         id="g3205"
         transform="translate(-182.14286,530.64789)">
        <defs
           id="defs3207">
          <path
             d="m 304.4,203.1 h -12.8 c 1.1,-2.2 1.6,-4.4 1.6,-6.5 0,-5.5 -3.8,-9.4 -11,-13.5 L 233,154.4 V 97 h -17.1 l -4.1,-5.8 -2.9,-3.4 v -1.5 h 102.7 l 3.9,5.8 3.1,3.4 V 97 h -22.8 v 31.9 c 0,12.9 -6,19.5 -15.8,23 L 268,145 c 11.3,-2.7 15.9,-7.5 15.9,-16.1 0,-3.9 -0.2,-27.1 -0.2,-31.9 h -38.6 v 55.9 l 45.3,26.2 c 8.6,5 14.4,11.3 14.4,20.1 0,1.2 -0.1,2.5 -0.4,3.9 z"
             id="SVGID_5_"
             inkscape:connector-curvature="0" />
        </defs>
        <clipPath
           id="clipPath3339">
          <use
             id="use3341"
             overflow="visible"
             xlink:href="#SVGID_5_"
             style="overflow:visible"
             x="0"
             y="0"
             width="744.09448"
             height="1052.3622" />
        </clipPath>
        <rect
           id="rect3213"
           height="143"
           width="135.8"
           clip-path="url(#SVGID_6_)"
           y="73.099998"
           x="195.8"
           style="fill:#ffffff" />
      </g>
    </g>
  </g>
</svg>
